<svg xmlns="http://www.w3.org/2000/svg" width="1280" height="640" viewBox="0 0 1280 640" role="img" aria-label="Awesome Academic Skills"><title>Awesome Academic Skills</title>
<rect width="1280" height="640" fill="#ffffff"/>
<rect x="56.5" y="56.5" width="1167" height="527" fill="none" stroke="#e5e5e5" stroke-width="1"/>
<g fill="#737373"><path transform="translate(536.800 205.000) scale(0.01500 -0.01500)" d="M24 0 232 710H368L576 0H467L300 601L133 0ZM140 185 172 282H428L460 185Z"/>
<path transform="translate(565.000 205.000) scale(0.01500 -0.01500)" d="M303 -16Q217 -16 157.5 29.0Q98 74 67.0 157.0Q36 240 36 354Q36 469 67.0 552.0Q98 635 157.5 680.5Q217 726 303 726Q400 726 466.5 662.0Q533 598 554 483L444 477Q429 551 391.5 589.5Q354 628 303 628Q251 628 216.0 596.0Q181 564 163.0 503.0Q145 442 145 354Q145 267 163.0 206.5Q181 146 216.0 114.0Q251 82 303 82Q358 82 397.0 124.0Q436 166 449 247L558 242Q540 120 473.0 52.0Q406 -16 303 -16Z"/>
<path transform="translate(579.100 205.000) scale(0.01500 -0.01500)" d="M300 -16Q186 -16 122.0 54.0Q58 124 58 247V710H163V243Q163 165 198.0 123.5Q233 82 300 82Q367 82 402.0 123.5Q437 165 437 243V710H542V247Q542 124 478.0 54.0Q414 -16 300 -16Z"/>
<path transform="translate(593.200 205.000) scale(0.01500 -0.01500)" d="M67 0V710H288Q401 710 465.5 653.0Q530 596 530 498Q530 447 507.5 408.0Q485 369 448.5 347.0Q412 325 371 322L367 334Q441 331 477.5 300.5Q514 270 520 202L538 0H433L417 182Q414 217 402.0 238.0Q390 259 365.0 268.0Q340 277 296 277H172V0ZM172 375H286Q352 375 387.0 406.0Q422 437 422 493Q422 550 387.0 580.5Q352 611 286 611H172Z"/>
<path transform="translate(607.300 205.000) scale(0.01500 -0.01500)" d="M24 0 232 710H368L576 0H467L300 601L133 0ZM140 185 172 282H428L460 185Z"/>
<path transform="translate(621.400 205.000) scale(0.01500 -0.01500)" d="M248 0V611H40V710H560V611H352V0Z"/>
<path transform="translate(635.500 205.000) scale(0.01500 -0.01500)" d="M88 0V710H524V611H193V404H512V308H193V99H532V0Z"/>
<path transform="translate(649.600 205.000) scale(0.01500 -0.01500)" d="M83 0V710H256Q350 710 419.5 668.5Q489 627 526.5 547.5Q564 468 564 354Q564 240 526.5 161.0Q489 82 419.5 41.0Q350 0 256 0ZM188 99H253Q350 99 402.5 162.5Q455 226 455 354Q455 482 402.5 546.5Q350 611 253 611H188Z"/>
<path transform="translate(677.800 205.000) scale(0.01500 -0.01500)" d="M78 0V99H248V611H78V710H522V611H352V99H522V0Z"/>
<path transform="translate(691.900 205.000) scale(0.01500 -0.01500)" d="M68 0V710H196L429 149V710H532V0H404L171 561V0Z"/>
<path transform="translate(706.000 205.000) scale(0.01500 -0.01500)" d="M83 0V710H256Q350 710 419.5 668.5Q489 627 526.5 547.5Q564 468 564 354Q564 240 526.5 161.0Q489 82 419.5 41.0Q350 0 256 0ZM188 99H253Q350 99 402.5 162.5Q455 226 455 354Q455 482 402.5 546.5Q350 611 253 611H188Z"/>
<path transform="translate(720.100 205.000) scale(0.01500 -0.01500)" d="M88 0V710H524V611H193V404H512V308H193V99H532V0Z"/>
<path transform="translate(734.200 205.000) scale(0.01500 -0.01500)" d="M45 0 232 357 48 710H167L301 437L435 710H552L368 356L555 0H436L299 277L161 0Z"/></g>
<line x1="110" y1="200.5" x2="520" y2="200.5" stroke="#e5e5e5" stroke-width="1"/>
<line x1="760" y1="200.5" x2="1170" y2="200.5" stroke="#e5e5e5" stroke-width="1"/>
<g fill="#0a0a0a"><path transform="translate(77.104 330.000) scale(0.09600 -0.09600)" d="M20 0 276 710H413L669 0H554L489 185H199L135 0ZM233 283H456L344 607Z"/>
<path transform="translate(139.888 330.000) scale(0.09600 -0.09600)" d="M184 0 22 532H133L247 116L364 532H464L581 116L696 532H807L645 0H526L414 380L302 0Z"/>
<path transform="translate(216.112 330.000) scale(0.09600 -0.09600)" d="M294 -12Q216 -12 159.5 22.0Q103 56 72.5 119.0Q42 182 42 266Q42 350 72.5 412.5Q103 475 159.0 509.5Q215 544 291 544Q363 544 418.0 510.5Q473 477 503.5 414.0Q534 351 534 262V235H152Q156 157 193.5 118.0Q231 79 295 79Q342 79 373.0 101.0Q404 123 416 160L526 153Q505 79 443.5 33.5Q382 -12 294 -12ZM152 315H422Q417 386 381.5 420.0Q346 454 291 454Q234 454 197.5 418.5Q161 383 152 315Z"/>
<path transform="translate(268.048 330.000) scale(0.09600 -0.09600)" d="M280 -12Q205 -12 153.5 11.0Q102 34 74.0 74.5Q46 115 42 168L151 173Q159 129 189.0 103.0Q219 77 280 77Q330 77 359.0 93.0Q388 109 388 144Q388 163 378.5 176.5Q369 190 342.0 199.5Q315 209 262 218Q183 233 138.0 253.0Q93 273 74.0 304.0Q55 335 55 379Q55 452 109.5 498.0Q164 544 267 544Q336 544 383.0 520.5Q430 497 456.5 457.5Q483 418 490 369L381 363Q376 391 361.5 411.5Q347 432 323.0 443.5Q299 455 266 455Q215 455 190.0 435.0Q165 415 165 383Q165 359 176.5 344.0Q188 329 214.0 319.5Q240 310 283 303Q366 289 413.0 268.5Q460 248 479.0 218.0Q498 188 498 145Q498 95 470.0 60.0Q442 25 393.0 6.5Q344 -12 280 -12Z"/>
<path transform="translate(316.528 330.000) scale(0.09600 -0.09600)" d="M294 -12Q218 -12 161.0 22.0Q104 56 73.0 119.0Q42 182 42 266Q42 351 73.0 413.0Q104 475 161.0 509.5Q218 544 294 544Q370 544 427.0 509.5Q484 475 515.0 413.0Q546 351 546 266Q546 182 515.0 119.0Q484 56 427.0 22.0Q370 -12 294 -12ZM294 80Q362 80 399.0 129.5Q436 179 436 266Q436 353 399.0 402.5Q362 452 294 452Q227 452 189.5 402.5Q152 353 152 266Q152 179 189.5 129.5Q227 80 294 80Z"/>
<path transform="translate(369.616 330.000) scale(0.09600 -0.09600)" d="M75 0V532H172L175 400L163 404Q172 448 194.5 479.0Q217 510 250.0 527.0Q283 544 322 544Q390 544 433.0 505.5Q476 467 487 400H470Q479 447 500.5 478.5Q522 510 556.0 527.0Q590 544 633 544Q689 544 728.5 520.5Q768 497 788.5 452.0Q809 407 809 342V0H703V316Q703 385 678.0 420.0Q653 455 602 455Q569 455 544.0 438.0Q519 421 505.5 389.0Q492 357 492 312V0H391V312Q391 380 368.5 417.5Q346 455 292 455Q258 455 233.5 438.0Q209 421 195.0 388.5Q181 356 181 312V0Z"/>
<path transform="translate(451.216 330.000) scale(0.09600 -0.09600)" d="M294 -12Q216 -12 159.5 22.0Q103 56 72.5 119.0Q42 182 42 266Q42 350 72.5 412.5Q103 475 159.0 509.5Q215 544 291 544Q363 544 418.0 510.5Q473 477 503.5 414.0Q534 351 534 262V235H152Q156 157 193.5 118.0Q231 79 295 79Q342 79 373.0 101.0Q404 123 416 160L526 153Q505 79 443.5 33.5Q382 -12 294 -12ZM152 315H422Q417 386 381.5 420.0Q346 454 291 454Q234 454 197.5 418.5Q161 383 152 315Z"/>
<path transform="translate(523.120 330.000) scale(0.09600 -0.09600)" d="M20 0 276 710H413L669 0H554L489 185H199L135 0ZM233 283H456L344 607Z"/>
<path transform="translate(585.904 330.000) scale(0.09600 -0.09600)" d="M294 -12Q218 -12 161.0 22.0Q104 56 73.0 119.0Q42 182 42 266Q42 350 73.0 412.5Q104 475 161.0 509.5Q218 544 294 544Q359 544 409.5 521.5Q460 499 491.5 456.0Q523 413 532 351L421 345Q413 397 379.0 424.5Q345 452 294 452Q227 452 189.5 402.5Q152 353 152 266Q152 179 189.5 129.5Q227 80 294 80Q345 80 379.0 108.5Q413 137 421 195L532 189Q523 128 491.5 83.0Q460 38 409.5 13.0Q359 -12 294 -12Z"/>
<path transform="translate(636.592 330.000) scale(0.09600 -0.09600)" d="M224 -12Q141 -12 91.5 26.0Q42 64 42 133Q42 202 83.5 240.5Q125 279 212 296L395 331Q395 393 366.0 423.5Q337 454 280 454Q229 454 200.0 431.5Q171 409 160 365L51 372Q66 452 125.5 498.0Q185 544 280 544Q388 544 444.5 486.5Q501 429 501 325V118Q501 99 507.5 91.5Q514 84 529 84H548V0Q543 -1 532.0 -2.0Q521 -3 509 -3Q475 -3 450.5 8.0Q426 19 414.0 44.5Q402 70 402 113L413 108Q405 73 378.5 46.0Q352 19 311.5 3.5Q271 -12 224 -12ZM241 72Q289 72 323.0 90.5Q357 109 376.0 142.0Q395 175 395 217V251L239 221Q191 212 171.5 192.5Q152 173 152 143Q152 109 175.5 90.5Q199 72 241 72Z"/>
<path transform="translate(687.472 330.000) scale(0.09600 -0.09600)" d="M264 -12Q196 -12 145.5 22.0Q95 56 68.5 118.5Q42 181 42 266Q42 351 69.0 413.5Q96 476 146.0 510.0Q196 544 264 544Q319 544 362.0 521.0Q405 498 427 457V710H533V0H434L431 80Q409 37 364.5 12.5Q320 -12 264 -12ZM292 80Q335 80 365.0 102.0Q395 124 411.0 166.0Q427 208 427 266Q427 326 411.0 367.5Q395 409 365.0 430.5Q335 452 292 452Q228 452 190.0 402.5Q152 353 152 266Q152 180 190.0 130.0Q228 80 292 80Z"/>
<path transform="translate(742.480 330.000) scale(0.09600 -0.09600)" d="M294 -12Q216 -12 159.5 22.0Q103 56 72.5 119.0Q42 182 42 266Q42 350 72.5 412.5Q103 475 159.0 509.5Q215 544 291 544Q363 544 418.0 510.5Q473 477 503.5 414.0Q534 351 534 262V235H152Q156 157 193.5 118.0Q231 79 295 79Q342 79 373.0 101.0Q404 123 416 160L526 153Q505 79 443.5 33.5Q382 -12 294 -12ZM152 315H422Q417 386 381.5 420.0Q346 454 291 454Q234 454 197.5 418.5Q161 383 152 315Z"/>
<path transform="translate(794.416 330.000) scale(0.09600 -0.09600)" d="M75 0V532H172L175 400L163 404Q172 448 194.5 479.0Q217 510 250.0 527.0Q283 544 322 544Q390 544 433.0 505.5Q476 467 487 400H470Q479 447 500.5 478.5Q522 510 556.0 527.0Q590 544 633 544Q689 544 728.5 520.5Q768 497 788.5 452.0Q809 407 809 342V0H703V316Q703 385 678.0 420.0Q653 455 602 455Q569 455 544.0 438.0Q519 421 505.5 389.0Q492 357 492 312V0H391V312Q391 380 368.5 417.5Q346 455 292 455Q258 455 233.5 438.0Q209 421 195.0 388.5Q181 356 181 312V0Z"/>
<path transform="translate(876.016 330.000) scale(0.09600 -0.09600)" d="M75 0V532H181V0ZM73 609V715H183V609Z"/>
<path transform="translate(897.232 330.000) scale(0.09600 -0.09600)" d="M294 -12Q218 -12 161.0 22.0Q104 56 73.0 119.0Q42 182 42 266Q42 350 73.0 412.5Q104 475 161.0 509.5Q218 544 294 544Q359 544 409.5 521.5Q460 499 491.5 456.0Q523 413 532 351L421 345Q413 397 379.0 424.5Q345 452 294 452Q227 452 189.5 402.5Q152 353 152 266Q152 179 189.5 129.5Q227 80 294 80Q345 80 379.0 108.5Q413 137 421 195L532 189Q523 128 491.5 83.0Q460 38 409.5 13.0Q359 -12 294 -12Z"/>
<path transform="translate(967.888 330.000) scale(0.09600 -0.09600)" d="M342 -16Q257 -16 194.5 15.0Q132 46 96.0 101.0Q60 156 54 229L165 236Q172 186 194.0 151.5Q216 117 253.5 99.5Q291 82 344 82Q390 82 422.5 93.5Q455 105 472.0 128.0Q489 151 489 184Q489 214 474.5 237.5Q460 261 419.5 280.5Q379 300 301 319Q216 340 165.0 365.0Q114 390 91.5 427.5Q69 465 69 520Q69 581 98.5 627.5Q128 674 183.0 700.0Q238 726 315 726Q396 726 453.5 696.0Q511 666 544.5 614.0Q578 562 586 495L475 489Q470 530 450.0 561.5Q430 593 396.0 610.5Q362 628 313 628Q251 628 215.5 599.5Q180 571 180 524Q180 494 194.5 473.5Q209 453 246.5 438.0Q284 423 353 406Q445 385 499.5 354.5Q554 324 577.0 283.0Q600 242 600 190Q600 127 567.5 80.5Q535 34 477.0 9.0Q419 -16 342 -16Z"/>
<path transform="translate(1027.312 330.000) scale(0.09600 -0.09600)" d="M75 0V710H181V269L420 532H554L346 308L562 0H440L275 242L181 142V0Z"/>
<path transform="translate(1082.416 330.000) scale(0.09600 -0.09600)" d="M75 0V532H181V0ZM73 609V715H183V609Z"/>
<path transform="translate(1103.632 330.000) scale(0.09600 -0.09600)" d="M191 0Q139 0 107.0 27.0Q75 54 75 113V710H181V123Q181 105 190.5 96.0Q200 87 218 87H260V0Z"/>
<path transform="translate(1127.344 330.000) scale(0.09600 -0.09600)" d="M191 0Q139 0 107.0 27.0Q75 54 75 113V710H181V123Q181 105 190.5 96.0Q200 87 218 87H260V0Z"/>
<path transform="translate(1151.056 330.000) scale(0.09600 -0.09600)" d="M280 -12Q205 -12 153.5 11.0Q102 34 74.0 74.5Q46 115 42 168L151 173Q159 129 189.0 103.0Q219 77 280 77Q330 77 359.0 93.0Q388 109 388 144Q388 163 378.5 176.5Q369 190 342.0 199.5Q315 209 262 218Q183 233 138.0 253.0Q93 273 74.0 304.0Q55 335 55 379Q55 452 109.5 498.0Q164 544 267 544Q336 544 383.0 520.5Q430 497 456.5 457.5Q483 418 490 369L381 363Q376 391 361.5 411.5Q347 432 323.0 443.5Q299 455 266 455Q215 455 190.0 435.0Q165 415 165 383Q165 359 176.5 344.0Q188 329 214.0 319.5Q240 310 283 303Q366 289 413.0 268.5Q460 248 479.0 218.0Q498 188 498 145Q498 95 470.0 60.0Q442 25 393.0 6.5Q344 -12 280 -12Z"/></g>
<g fill="#737373"><path transform="translate(305.341 400.000) scale(0.02600 -0.02600)" d="M233 0V626H12V710H540V626H319V0Z"/>
<path transform="translate(319.823 400.000) scale(0.02600 -0.02600)" d="M80 0V710H164V413L154 415Q164 459 188.0 487.0Q212 515 247.0 528.5Q282 542 324 542Q381 542 420.5 516.5Q460 491 480.5 445.5Q501 400 501 341V0H417V317Q417 394 389.5 431.0Q362 468 306 468Q242 468 203.0 429.0Q164 390 164 316V0Z"/>
<path transform="translate(335.059 400.000) scale(0.02600 -0.02600)" d="M287 -12Q212 -12 157.5 22.0Q103 56 73.5 118.5Q44 181 44 265Q44 349 73.5 411.0Q103 473 156.5 507.5Q210 542 283 542Q352 542 405.0 509.5Q458 477 487.5 415.0Q517 353 517 264V239H132Q137 154 177.5 111.0Q218 68 287 68Q339 68 372.5 92.5Q406 117 419 157L509 150Q488 79 429.5 33.5Q371 -12 287 -12ZM132 313H425Q419 390 380.5 426.0Q342 462 283 462Q222 462 182.5 424.5Q143 387 132 313Z"/>
<path transform="translate(356.405 400.000) scale(0.02600 -0.02600)" d="M287 -12Q213 -12 158.5 22.0Q104 56 74.0 118.5Q44 181 44 265Q44 349 74.0 411.0Q104 473 158.5 507.5Q213 542 287 542Q348 542 395.5 520.5Q443 499 473.0 458.0Q503 417 512 358L424 352Q415 405 378.0 433.5Q341 462 287 462Q214 462 173.0 409.5Q132 357 132 265Q132 173 173.0 120.5Q214 68 287 68Q341 68 378.0 98.0Q415 128 424 188L512 182Q503 123 473.0 79.5Q443 36 395.5 12.0Q348 -12 287 -12Z"/>
<path transform="translate(370.731 400.000) scale(0.02600 -0.02600)" d="M254 -12Q175 -12 127.5 41.5Q80 95 80 189V530H164V212Q164 135 191.5 98.5Q219 62 276 62Q339 62 375.0 102.5Q411 143 411 214V530H495V0H415V131L428 124Q412 59 367.0 23.5Q322 -12 254 -12Z"/>
<path transform="translate(385.811 400.000) scale(0.02600 -0.02600)" d="M80 0V530H154L158 396L150 399Q160 467 193.5 498.5Q227 530 283 530H335V450H284Q244 450 217.5 435.5Q191 421 177.5 392.5Q164 364 164 320V0Z"/>
<path transform="translate(395.795 400.000) scale(0.02600 -0.02600)" d="M223 -12Q141 -12 92.5 26.0Q44 64 44 132Q44 200 84.0 239.0Q124 278 211 294L399 329Q399 396 367.5 429.0Q336 462 273 462Q218 462 186.0 437.5Q154 413 142 367L53 374Q68 449 125.5 495.5Q183 542 273 542Q375 542 429.0 484.5Q483 427 483 326V107Q483 89 489.5 81.5Q496 74 511 74H532V0Q528 -1 519.0 -1.5Q510 -2 500 -2Q464 -2 441.5 9.5Q419 21 409.0 45.5Q399 70 399 110L409 108Q402 74 375.0 46.5Q348 19 308.0 3.5Q268 -12 223 -12ZM231 62Q284 62 321.5 82.5Q359 103 379.0 138.5Q399 174 399 218V256L227 224Q173 214 152.5 193.5Q132 173 132 140Q132 103 158.5 82.5Q185 62 231 62Z"/>
<path transform="translate(410.251 400.000) scale(0.02600 -0.02600)" d="M274 0Q202 0 167.5 33.0Q133 66 133 136V654H217V138Q217 102 233.0 88.0Q249 74 282 74H358V0ZM55 456V530H358V456Z"/>
<path transform="translate(420.573 400.000) scale(0.02600 -0.02600)" d="M287 -12Q212 -12 157.5 22.0Q103 56 73.5 118.5Q44 181 44 265Q44 349 73.5 411.0Q103 473 156.5 507.5Q210 542 283 542Q352 542 405.0 509.5Q458 477 487.5 415.0Q517 353 517 264V239H132Q137 154 177.5 111.0Q218 68 287 68Q339 68 372.5 92.5Q406 117 419 157L509 150Q488 79 429.5 33.5Q371 -12 287 -12ZM132 313H425Q419 390 380.5 426.0Q342 462 283 462Q222 462 182.5 424.5Q143 387 132 313Z"/>
<path transform="translate(435.289 400.000) scale(0.02600 -0.02600)" d="M268 -12Q199 -12 148.5 22.0Q98 56 71.0 118.0Q44 180 44 265Q44 350 71.0 412.0Q98 474 148.5 508.0Q199 542 268 542Q321 542 365.0 519.5Q409 497 431 456V710H515V0H439L436 80Q414 37 369.0 12.5Q324 -12 268 -12ZM285 68Q332 68 364.5 92.0Q397 116 414.0 160.5Q431 205 431 265Q431 327 414.0 371.0Q397 415 364.5 438.5Q332 462 285 462Q215 462 173.5 409.5Q132 357 132 265Q132 174 173.5 121.0Q215 68 285 68Z"/>
<path transform="translate(457.519 400.000) scale(0.02600 -0.02600)" d="M80 0V530H164V0ZM78 613V711H166V613Z"/>
<path transform="translate(463.993 400.000) scale(0.02600 -0.02600)" d="M80 0V530H157L160 395L150 404Q160 451 185.0 481.5Q210 512 245.5 527.0Q281 542 322 542Q383 542 422.5 515.0Q462 488 481.5 442.5Q501 397 501 341V0H417V317Q417 366 405.5 399.5Q394 433 369.0 450.5Q344 468 304 468Q243 468 203.5 429.5Q164 391 164 317V0Z"/>
<path transform="translate(479.229 400.000) scale(0.02600 -0.02600)" d="M268 -12Q199 -12 148.5 22.0Q98 56 71.0 118.0Q44 180 44 265Q44 350 71.0 412.0Q98 474 148.5 508.0Q199 542 268 542Q321 542 365.0 519.5Q409 497 431 456V710H515V0H439L436 80Q414 37 369.0 12.5Q324 -12 268 -12ZM285 68Q332 68 364.5 92.0Q397 116 414.0 160.5Q431 205 431 265Q431 327 414.0 371.0Q397 415 364.5 438.5Q332 462 285 462Q215 462 173.5 409.5Q132 357 132 265Q132 174 173.5 121.0Q215 68 285 68Z"/>
<path transform="translate(494.829 400.000) scale(0.02600 -0.02600)" d="M287 -12Q212 -12 157.5 22.0Q103 56 73.5 118.5Q44 181 44 265Q44 349 73.5 411.0Q103 473 156.5 507.5Q210 542 283 542Q352 542 405.0 509.5Q458 477 487.5 415.0Q517 353 517 264V239H132Q137 154 177.5 111.0Q218 68 287 68Q339 68 372.5 92.5Q406 117 419 157L509 150Q488 79 429.5 33.5Q371 -12 287 -12ZM132 313H425Q419 390 380.5 426.0Q342 462 283 462Q222 462 182.5 424.5Q143 387 132 313Z"/>
<path transform="translate(509.545 400.000) scale(0.02600 -0.02600)" d="M47 0 242 272 57 530H155L294 330L429 530H529L346 270L538 0H440L294 214L147 0Z"/>
<path transform="translate(531.515 400.000) scale(0.02600 -0.02600)" d="M287 -12Q214 -12 159.0 22.0Q104 56 74.0 118.5Q44 181 44 265Q44 350 74.0 412.0Q104 474 159.0 508.0Q214 542 287 542Q360 542 414.5 508.0Q469 474 499.0 412.0Q529 350 529 265Q529 181 499.0 118.5Q469 56 414.5 22.0Q360 -12 287 -12ZM287 68Q360 68 400.5 120.5Q441 173 441 265Q441 357 400.5 409.5Q360 462 287 462Q214 462 173.0 409.5Q132 357 132 265Q132 173 173.0 120.5Q214 68 287 68Z"/>
<path transform="translate(546.543 400.000) scale(0.02600 -0.02600)" d="M132 0V578Q132 637 166.0 673.5Q200 710 272 710H356V636H278Q247 636 231.5 619.0Q216 602 216 572V0ZM60 456V530H349V456Z"/>
<path transform="translate(563.573 400.000) scale(0.02600 -0.02600)" d="M364 -16Q269 -16 197.0 28.5Q125 73 85.0 156.0Q45 239 45 354Q45 469 85.0 552.5Q125 636 197.0 681.0Q269 726 364 726Q493 726 564.0 661.0Q635 596 657 484L566 478Q551 554 502.0 598.0Q453 642 364 642Q296 642 244.5 607.5Q193 573 164.0 508.5Q135 444 135 354Q135 264 164.0 200.0Q193 136 244.5 102.0Q296 68 364 68Q457 68 508.0 116.5Q559 165 572 248L663 242Q650 165 612.0 107.0Q574 49 511.5 16.5Q449 -16 364 -16Z"/>
<path transform="translate(581.981 400.000) scale(0.02600 -0.02600)" d="M184 0Q138 0 109.0 24.0Q80 48 80 100V710H164V107Q164 91 172.5 82.5Q181 74 197 74H243V0Z"/>
<path transform="translate(589.053 400.000) scale(0.02600 -0.02600)" d="M223 -12Q141 -12 92.5 26.0Q44 64 44 132Q44 200 84.0 239.0Q124 278 211 294L399 329Q399 396 367.5 429.0Q336 462 273 462Q218 462 186.0 437.5Q154 413 142 367L53 374Q68 449 125.5 495.5Q183 542 273 542Q375 542 429.0 484.5Q483 427 483 326V107Q483 89 489.5 81.5Q496 74 511 74H532V0Q528 -1 519.0 -1.5Q510 -2 500 -2Q464 -2 441.5 9.5Q419 21 409.0 45.5Q399 70 399 110L409 108Q402 74 375.0 46.5Q348 19 308.0 3.5Q268 -12 223 -12ZM231 62Q284 62 321.5 82.5Q359 103 379.0 138.5Q399 174 399 218V256L227 224Q173 214 152.5 193.5Q132 173 132 140Q132 103 158.5 82.5Q185 62 231 62Z"/>
<path transform="translate(603.509 400.000) scale(0.02600 -0.02600)" d="M254 -12Q175 -12 127.5 41.5Q80 95 80 189V530H164V212Q164 135 191.5 98.5Q219 62 276 62Q339 62 375.0 102.5Q411 143 411 214V530H495V0H415V131L428 124Q412 59 367.0 23.5Q322 -12 254 -12Z"/>
<path transform="translate(618.589 400.000) scale(0.02600 -0.02600)" d="M268 -12Q199 -12 148.5 22.0Q98 56 71.0 118.0Q44 180 44 265Q44 350 71.0 412.0Q98 474 148.5 508.0Q199 542 268 542Q321 542 365.0 519.5Q409 497 431 456V710H515V0H439L436 80Q414 37 369.0 12.5Q324 -12 268 -12ZM285 68Q332 68 364.5 92.0Q397 116 414.0 160.5Q431 205 431 265Q431 327 414.0 371.0Q397 415 364.5 438.5Q332 462 285 462Q215 462 173.5 409.5Q132 357 132 265Q132 174 173.5 121.0Q215 68 285 68Z"/>
<path transform="translate(634.189 400.000) scale(0.02600 -0.02600)" d="M287 -12Q212 -12 157.5 22.0Q103 56 73.5 118.5Q44 181 44 265Q44 349 73.5 411.0Q103 473 156.5 507.5Q210 542 283 542Q352 542 405.0 509.5Q458 477 487.5 415.0Q517 353 517 264V239H132Q137 154 177.5 111.0Q218 68 287 68Q339 68 372.5 92.5Q406 117 419 157L509 150Q488 79 429.5 33.5Q371 -12 287 -12ZM132 313H425Q419 390 380.5 426.0Q342 462 283 462Q222 462 182.5 424.5Q143 387 132 313Z"/>
<path transform="translate(655.535 400.000) scale(0.02600 -0.02600)" d="M260 -16Q158 -16 99.0 33.5Q40 83 40 174Q40 220 53.0 255.5Q66 291 96.5 324.0Q127 357 180 394Q157 424 141.0 450.5Q125 477 116.5 504.0Q108 531 108 562Q108 639 154.5 682.5Q201 726 282 726Q335 726 372.0 707.5Q409 689 428.5 655.0Q448 621 448 574Q448 517 414.0 471.5Q380 426 300 373L462 166Q498 216 498 318L582 310Q581 250 562.5 194.0Q544 138 515 103L600 0H499L462 45Q433 17 382.5 0.5Q332 -16 260 -16ZM270 64Q321 64 355.0 76.0Q389 88 406 106L230 328Q176 291 153.0 256.0Q130 221 130 174Q130 124 163.5 94.0Q197 64 270 64ZM254 434Q292 458 315.0 478.5Q338 499 348.0 521.0Q358 543 358 568Q358 604 338.0 623.0Q318 642 282 642Q242 642 220.0 621.0Q198 600 198 562Q198 542 203.0 522.5Q208 503 220.5 482.0Q233 461 254 434Z"/>
<path transform="translate(678.415 400.000) scale(0.02600 -0.02600)" d="M223 -12Q141 -12 92.5 26.0Q44 64 44 132Q44 200 84.0 239.0Q124 278 211 294L399 329Q399 396 367.5 429.0Q336 462 273 462Q218 462 186.0 437.5Q154 413 142 367L53 374Q68 449 125.5 495.5Q183 542 273 542Q375 542 429.0 484.5Q483 427 483 326V107Q483 89 489.5 81.5Q496 74 511 74H532V0Q528 -1 519.0 -1.5Q510 -2 500 -2Q464 -2 441.5 9.5Q419 21 409.0 45.5Q399 70 399 110L409 108Q402 74 375.0 46.5Q348 19 308.0 3.5Q268 -12 223 -12ZM231 62Q284 62 321.5 82.5Q359 103 379.0 138.5Q399 174 399 218V256L227 224Q173 214 152.5 193.5Q132 173 132 140Q132 103 158.5 82.5Q185 62 231 62Z"/>
<path transform="translate(692.871 400.000) scale(0.02600 -0.02600)" d="M281 -162Q224 -162 178.0 -143.0Q132 -124 101.0 -89.0Q70 -54 59 -8L147 -2Q159 -39 189.5 -60.5Q220 -82 281 -82Q353 -82 391.5 -53.0Q430 -24 430 34V120Q411 78 369.0 53.0Q327 28 275 28Q208 28 155.5 61.0Q103 94 73.5 152.0Q44 210 44 285Q44 361 73.0 418.5Q102 476 153.5 509.0Q205 542 271 542Q327 542 371.5 516.0Q416 490 434 446V530H514V36Q514 -26 486.0 -70.5Q458 -115 406.0 -138.5Q354 -162 281 -162ZM279 108Q347 108 388.0 155.5Q429 203 430 285Q431 340 412.5 379.5Q394 419 359.5 440.5Q325 462 279 462Q209 462 170.5 414.5Q132 367 132 285Q132 203 171.5 155.5Q211 108 279 108Z"/>
<path transform="translate(708.445 400.000) scale(0.02600 -0.02600)" d="M287 -12Q212 -12 157.5 22.0Q103 56 73.5 118.5Q44 181 44 265Q44 349 73.5 411.0Q103 473 156.5 507.5Q210 542 283 542Q352 542 405.0 509.5Q458 477 487.5 415.0Q517 353 517 264V239H132Q137 154 177.5 111.0Q218 68 287 68Q339 68 372.5 92.5Q406 117 419 157L509 150Q488 79 429.5 33.5Q371 -12 287 -12ZM132 313H425Q419 390 380.5 426.0Q342 462 283 462Q222 462 182.5 424.5Q143 387 132 313Z"/>
<path transform="translate(723.161 400.000) scale(0.02600 -0.02600)" d="M80 0V530H157L160 395L150 404Q160 451 185.0 481.5Q210 512 245.5 527.0Q281 542 322 542Q383 542 422.5 515.0Q462 488 481.5 442.5Q501 397 501 341V0H417V317Q417 366 405.5 399.5Q394 433 369.0 450.5Q344 468 304 468Q243 468 203.5 429.5Q164 391 164 317V0Z"/>
<path transform="translate(738.397 400.000) scale(0.02600 -0.02600)" d="M274 0Q202 0 167.5 33.0Q133 66 133 136V654H217V138Q217 102 233.0 88.0Q249 74 282 74H358V0ZM55 456V530H358V456Z"/>
<path transform="translate(755.349 400.000) scale(0.02600 -0.02600)" d="M273 -12Q202 -12 152.5 11.0Q103 34 75.5 74.5Q48 115 44 167L132 173Q140 125 173.0 96.5Q206 68 273 68Q327 68 359.5 85.5Q392 103 392 142Q392 163 382.0 177.0Q372 191 343.0 201.5Q314 212 257 222Q181 236 137.5 256.5Q94 277 75.5 307.5Q57 338 57 380Q57 451 109.0 496.5Q161 542 257 542Q322 542 366.5 518.5Q411 495 436.5 456.5Q462 418 470 372L382 366Q376 394 360.0 415.5Q344 437 318.0 449.5Q292 462 256 462Q199 462 172.0 440.0Q145 418 145 384Q145 358 157.5 341.5Q170 325 198.0 314.5Q226 304 273 296Q354 282 399.0 262.0Q444 242 462.0 213.0Q480 184 480 142Q480 93 452.5 58.5Q425 24 378.5 6.0Q332 -12 273 -12Z"/>
<path transform="translate(769.103 400.000) scale(0.02600 -0.02600)" d="M80 0V710H164V245L422 530H534L325 305L543 0H441L268 248L164 138V0Z"/>
<path transform="translate(784.573 400.000) scale(0.02600 -0.02600)" d="M80 0V530H164V0ZM78 613V711H166V613Z"/>
<path transform="translate(791.047 400.000) scale(0.02600 -0.02600)" d="M184 0Q138 0 109.0 24.0Q80 48 80 100V710H164V107Q164 91 172.5 82.5Q181 74 197 74H243V0Z"/>
<path transform="translate(798.119 400.000) scale(0.02600 -0.02600)" d="M184 0Q138 0 109.0 24.0Q80 48 80 100V710H164V107Q164 91 172.5 82.5Q181 74 197 74H243V0Z"/>
<path transform="translate(805.191 400.000) scale(0.02600 -0.02600)" d="M273 -12Q202 -12 152.5 11.0Q103 34 75.5 74.5Q48 115 44 167L132 173Q140 125 173.0 96.5Q206 68 273 68Q327 68 359.5 85.5Q392 103 392 142Q392 163 382.0 177.0Q372 191 343.0 201.5Q314 212 257 222Q181 236 137.5 256.5Q94 277 75.5 307.5Q57 338 57 380Q57 451 109.0 496.5Q161 542 257 542Q322 542 366.5 518.5Q411 495 436.5 456.5Q462 418 470 372L382 366Q376 394 360.0 415.5Q344 437 318.0 449.5Q292 462 256 462Q199 462 172.0 440.0Q145 418 145 384Q145 358 157.5 341.5Q170 325 198.0 314.5Q226 304 273 296Q354 282 399.0 262.0Q444 242 462.0 213.0Q480 184 480 142Q480 93 452.5 58.5Q425 24 378.5 6.0Q332 -12 273 -12Z"/>
<path transform="translate(825.575 400.000) scale(0.02600 -0.02600)" d="M132 0V578Q132 637 166.0 673.5Q200 710 272 710H356V636H278Q247 636 231.5 619.0Q216 602 216 572V0ZM60 456V530H349V456Z"/>
<path transform="translate(835.975 400.000) scale(0.02600 -0.02600)" d="M287 -12Q214 -12 159.0 22.0Q104 56 74.0 118.5Q44 181 44 265Q44 350 74.0 412.0Q104 474 159.0 508.0Q214 542 287 542Q360 542 414.5 508.0Q469 474 499.0 412.0Q529 350 529 265Q529 181 499.0 118.5Q469 56 414.5 22.0Q360 -12 287 -12ZM287 68Q360 68 400.5 120.5Q441 173 441 265Q441 357 400.5 409.5Q360 462 287 462Q214 462 173.0 409.5Q132 357 132 265Q132 173 173.0 120.5Q214 68 287 68Z"/>
<path transform="translate(851.003 400.000) scale(0.02600 -0.02600)" d="M80 0V530H154L158 396L150 399Q160 467 193.5 498.5Q227 530 283 530H335V450H284Q244 450 217.5 435.5Q191 421 177.5 392.5Q164 364 164 320V0Z"/>
<path transform="translate(867.617 400.000) scale(0.02600 -0.02600)" d="M80 0V530H154L158 396L150 399Q160 467 193.5 498.5Q227 530 283 530H335V450H284Q244 450 217.5 435.5Q191 421 177.5 392.5Q164 364 164 320V0Z"/>
<path transform="translate(877.601 400.000) scale(0.02600 -0.02600)" d="M287 -12Q212 -12 157.5 22.0Q103 56 73.5 118.5Q44 181 44 265Q44 349 73.5 411.0Q103 473 156.5 507.5Q210 542 283 542Q352 542 405.0 509.5Q458 477 487.5 415.0Q517 353 517 264V239H132Q137 154 177.5 111.0Q218 68 287 68Q339 68 372.5 92.5Q406 117 419 157L509 150Q488 79 429.5 33.5Q371 -12 287 -12ZM132 313H425Q419 390 380.5 426.0Q342 462 283 462Q222 462 182.5 424.5Q143 387 132 313Z"/>
<path transform="translate(892.317 400.000) scale(0.02600 -0.02600)" d="M273 -12Q202 -12 152.5 11.0Q103 34 75.5 74.5Q48 115 44 167L132 173Q140 125 173.0 96.5Q206 68 273 68Q327 68 359.5 85.5Q392 103 392 142Q392 163 382.0 177.0Q372 191 343.0 201.5Q314 212 257 222Q181 236 137.5 256.5Q94 277 75.5 307.5Q57 338 57 380Q57 451 109.0 496.5Q161 542 257 542Q322 542 366.5 518.5Q411 495 436.5 456.5Q462 418 470 372L382 366Q376 394 360.0 415.5Q344 437 318.0 449.5Q292 462 256 462Q199 462 172.0 440.0Q145 418 145 384Q145 358 157.5 341.5Q170 325 198.0 314.5Q226 304 273 296Q354 282 399.0 262.0Q444 242 462.0 213.0Q480 184 480 142Q480 93 452.5 58.5Q425 24 378.5 6.0Q332 -12 273 -12Z"/>
<path transform="translate(906.071 400.000) scale(0.02600 -0.02600)" d="M287 -12Q212 -12 157.5 22.0Q103 56 73.5 118.5Q44 181 44 265Q44 349 73.5 411.0Q103 473 156.5 507.5Q210 542 283 542Q352 542 405.0 509.5Q458 477 487.5 415.0Q517 353 517 264V239H132Q137 154 177.5 111.0Q218 68 287 68Q339 68 372.5 92.5Q406 117 419 157L509 150Q488 79 429.5 33.5Q371 -12 287 -12ZM132 313H425Q419 390 380.5 426.0Q342 462 283 462Q222 462 182.5 424.5Q143 387 132 313Z"/>
<path transform="translate(920.787 400.000) scale(0.02600 -0.02600)" d="M223 -12Q141 -12 92.5 26.0Q44 64 44 132Q44 200 84.0 239.0Q124 278 211 294L399 329Q399 396 367.5 429.0Q336 462 273 462Q218 462 186.0 437.5Q154 413 142 367L53 374Q68 449 125.5 495.5Q183 542 273 542Q375 542 429.0 484.5Q483 427 483 326V107Q483 89 489.5 81.5Q496 74 511 74H532V0Q528 -1 519.0 -1.5Q510 -2 500 -2Q464 -2 441.5 9.5Q419 21 409.0 45.5Q399 70 399 110L409 108Q402 74 375.0 46.5Q348 19 308.0 3.5Q268 -12 223 -12ZM231 62Q284 62 321.5 82.5Q359 103 379.0 138.5Q399 174 399 218V256L227 224Q173 214 152.5 193.5Q132 173 132 140Q132 103 158.5 82.5Q185 62 231 62Z"/>
<path transform="translate(935.243 400.000) scale(0.02600 -0.02600)" d="M80 0V530H154L158 396L150 399Q160 467 193.5 498.5Q227 530 283 530H335V450H284Q244 450 217.5 435.5Q191 421 177.5 392.5Q164 364 164 320V0Z"/>
<path transform="translate(945.227 400.000) scale(0.02600 -0.02600)" d="M287 -12Q213 -12 158.5 22.0Q104 56 74.0 118.5Q44 181 44 265Q44 349 74.0 411.0Q104 473 158.5 507.5Q213 542 287 542Q348 542 395.5 520.5Q443 499 473.0 458.0Q503 417 512 358L424 352Q415 405 378.0 433.5Q341 462 287 462Q214 462 173.0 409.5Q132 357 132 265Q132 173 173.0 120.5Q214 68 287 68Q341 68 378.0 98.0Q415 128 424 188L512 182Q503 123 473.0 79.5Q443 36 395.5 12.0Q348 -12 287 -12Z"/>
<path transform="translate(959.553 400.000) scale(0.02600 -0.02600)" d="M80 0V710H164V413L154 415Q164 459 188.0 487.0Q212 515 247.0 528.5Q282 542 324 542Q381 542 420.5 516.5Q460 491 480.5 445.5Q501 400 501 341V0H417V317Q417 394 389.5 431.0Q362 468 306 468Q242 468 203.0 429.0Q164 390 164 316V0Z"/></g>
<g fill="#a3a3a3"><path transform="translate(177.550 498.000) scale(0.01500 -0.01500)" d="M83 0V710H256Q350 710 419.5 668.5Q489 627 526.5 547.5Q564 468 564 354Q564 240 526.5 161.0Q489 82 419.5 41.0Q350 0 256 0ZM188 99H253Q350 99 402.5 162.5Q455 226 455 354Q455 482 402.5 546.5Q350 611 253 611H188Z"/>
<path transform="translate(190.450 498.000) scale(0.01500 -0.01500)" d="M78 0V99H248V611H78V710H522V611H352V99H522V0Z"/>
<path transform="translate(203.350 498.000) scale(0.01500 -0.01500)" d="M309 -16Q232 -16 174.5 15.0Q117 46 83.0 101.5Q49 157 43 231L151 238Q158 187 179.0 152.0Q200 117 234.0 99.5Q268 82 313 82Q357 82 387.0 93.5Q417 105 433.0 127.0Q449 149 449 180Q449 212 434.0 236.0Q419 260 380.0 280.0Q341 300 266 321Q193 341 147.0 366.0Q101 391 80.0 428.0Q59 465 59 520Q59 581 87.5 627.5Q116 674 169.5 700.0Q223 726 298 726Q372 726 424.5 697.0Q477 668 507.5 616.5Q538 565 545 496L437 490Q432 531 414.5 562.0Q397 593 367.0 610.5Q337 628 295 628Q236 628 201.5 599.5Q167 571 167 525Q167 494 181.0 474.0Q195 454 230.0 438.0Q265 422 328 405Q413 382 463.0 352.0Q513 322 535.0 280.0Q557 238 557 180Q557 122 526.0 77.5Q495 33 439.5 8.5Q384 -16 309 -16Z"/>
<path transform="translate(216.250 498.000) scale(0.01500 -0.01500)" d="M303 -16Q217 -16 157.5 29.0Q98 74 67.0 157.0Q36 240 36 354Q36 469 67.0 552.0Q98 635 157.5 680.5Q217 726 303 726Q400 726 466.5 662.0Q533 598 554 483L444 477Q429 551 391.5 589.5Q354 628 303 628Q251 628 216.0 596.0Q181 564 163.0 503.0Q145 442 145 354Q145 267 163.0 206.5Q181 146 216.0 114.0Q251 82 303 82Q358 82 397.0 124.0Q436 166 449 247L558 242Q540 120 473.0 52.0Q406 -16 303 -16Z"/>
<path transform="translate(229.150 498.000) scale(0.01500 -0.01500)" d="M300 -16Q215 -16 156.5 27.0Q98 70 67.0 153.0Q36 236 36 354Q36 474 67.0 557.0Q98 640 156.5 683.0Q215 726 300 726Q385 726 444.0 683.0Q503 640 533.5 557.0Q564 474 564 354Q564 236 533.5 153.0Q503 70 444.0 27.0Q385 -16 300 -16ZM300 82Q350 82 384.5 112.0Q419 142 437.0 203.0Q455 264 455 354Q455 444 437.0 505.5Q419 567 384.5 597.5Q350 628 300 628Q250 628 215.5 597.5Q181 567 163.0 505.5Q145 444 145 354Q145 264 163.0 203.0Q181 142 215.5 112.0Q250 82 300 82Z"/>
<path transform="translate(242.050 498.000) scale(0.01500 -0.01500)" d="M238 0 27 710H138L316 85H284L462 710H573L362 0Z"/>
<path transform="translate(254.950 498.000) scale(0.01500 -0.01500)" d="M88 0V710H524V611H193V404H512V308H193V99H532V0Z"/>
<path transform="translate(267.850 498.000) scale(0.01500 -0.01500)" d="M67 0V710H288Q401 710 465.5 653.0Q530 596 530 498Q530 447 507.5 408.0Q485 369 448.5 347.0Q412 325 371 322L367 334Q441 331 477.5 300.5Q514 270 520 202L538 0H433L417 182Q414 217 402.0 238.0Q390 259 365.0 268.0Q340 277 296 277H172V0ZM172 375H286Q352 375 387.0 406.0Q422 437 422 493Q422 550 387.0 580.5Q352 611 286 611H172Z"/>
<path transform="translate(319.450 498.000) scale(0.01500 -0.01500)" d="M232 238V370H368V238Z"/>
<path transform="translate(371.050 498.000) scale(0.01500 -0.01500)" d="M67 0V710H288Q401 710 465.5 653.0Q530 596 530 498Q530 447 507.5 408.0Q485 369 448.5 347.0Q412 325 371 322L367 334Q441 331 477.5 300.5Q514 270 520 202L538 0H433L417 182Q414 217 402.0 238.0Q390 259 365.0 268.0Q340 277 296 277H172V0ZM172 375H286Q352 375 387.0 406.0Q422 437 422 493Q422 550 387.0 580.5Q352 611 286 611H172Z"/>
<path transform="translate(383.950 498.000) scale(0.01500 -0.01500)" d="M88 0V710H524V611H193V404H512V308H193V99H532V0Z"/>
<path transform="translate(396.850 498.000) scale(0.01500 -0.01500)" d="M24 0 232 710H368L576 0H467L300 601L133 0ZM140 185 172 282H428L460 185Z"/>
<path transform="translate(409.750 498.000) scale(0.01500 -0.01500)" d="M83 0V710H256Q350 710 419.5 668.5Q489 627 526.5 547.5Q564 468 564 354Q564 240 526.5 161.0Q489 82 419.5 41.0Q350 0 256 0ZM188 99H253Q350 99 402.5 162.5Q455 226 455 354Q455 482 402.5 546.5Q350 611 253 611H188Z"/>
<path transform="translate(461.350 498.000) scale(0.01500 -0.01500)" d="M232 238V370H368V238Z"/>
<path transform="translate(512.950 498.000) scale(0.01500 -0.01500)" d="M24 0 232 710H368L576 0H467L300 601L133 0ZM140 185 172 282H428L460 185Z"/>
<path transform="translate(525.850 498.000) scale(0.01500 -0.01500)" d="M68 0V710H196L429 149V710H532V0H404L171 561V0Z"/>
<path transform="translate(538.750 498.000) scale(0.01500 -0.01500)" d="M24 0 232 710H368L576 0H467L300 601L133 0ZM140 185 172 282H428L460 185Z"/>
<path transform="translate(551.650 498.000) scale(0.01500 -0.01500)" d="M98 0V710H203V40L139 99H542V0Z"/>
<path transform="translate(564.550 498.000) scale(0.01500 -0.01500)" d="M248 0V292L37 710H153L300 400L447 710H563L353 292V0Z"/>
<path transform="translate(577.450 498.000) scale(0.01500 -0.01500)" d="M48 0V100L424 611H66V710H544V610L169 99H552V0Z"/>
<path transform="translate(590.350 498.000) scale(0.01500 -0.01500)" d="M88 0V710H524V611H193V404H512V308H193V99H532V0Z"/>
<path transform="translate(641.950 498.000) scale(0.01500 -0.01500)" d="M232 238V370H368V238Z"/>
<path transform="translate(693.550 498.000) scale(0.01500 -0.01500)" d="M104 0 28 710H133L192 86H180L254 630H346L420 86H408L467 710H572L496 0H359L288 520H312L241 0Z"/>
<path transform="translate(706.450 498.000) scale(0.01500 -0.01500)" d="M67 0V710H288Q401 710 465.5 653.0Q530 596 530 498Q530 447 507.5 408.0Q485 369 448.5 347.0Q412 325 371 322L367 334Q441 331 477.5 300.5Q514 270 520 202L538 0H433L417 182Q414 217 402.0 238.0Q390 259 365.0 268.0Q340 277 296 277H172V0ZM172 375H286Q352 375 387.0 406.0Q422 437 422 493Q422 550 387.0 580.5Q352 611 286 611H172Z"/>
<path transform="translate(719.350 498.000) scale(0.01500 -0.01500)" d="M78 0V99H248V611H78V710H522V611H352V99H522V0Z"/>
<path transform="translate(732.250 498.000) scale(0.01500 -0.01500)" d="M248 0V611H40V710H560V611H352V0Z"/>
<path transform="translate(745.150 498.000) scale(0.01500 -0.01500)" d="M88 0V710H524V611H193V404H512V308H193V99H532V0Z"/>
<path transform="translate(796.750 498.000) scale(0.01500 -0.01500)" d="M232 238V370H368V238Z"/>
<path transform="translate(848.350 498.000) scale(0.01500 -0.01500)" d="M67 0V710H288Q401 710 465.5 653.0Q530 596 530 498Q530 447 507.5 408.0Q485 369 448.5 347.0Q412 325 371 322L367 334Q441 331 477.5 300.5Q514 270 520 202L538 0H433L417 182Q414 217 402.0 238.0Q390 259 365.0 268.0Q340 277 296 277H172V0ZM172 375H286Q352 375 387.0 406.0Q422 437 422 493Q422 550 387.0 580.5Q352 611 286 611H172Z"/>
<path transform="translate(861.250 498.000) scale(0.01500 -0.01500)" d="M88 0V710H524V611H193V404H512V308H193V99H532V0Z"/>
<path transform="translate(874.150 498.000) scale(0.01500 -0.01500)" d="M238 0 27 710H138L316 85H284L462 710H573L362 0Z"/>
<path transform="translate(887.050 498.000) scale(0.01500 -0.01500)" d="M78 0V99H248V611H78V710H522V611H352V99H522V0Z"/>
<path transform="translate(899.950 498.000) scale(0.01500 -0.01500)" d="M88 0V710H524V611H193V404H512V308H193V99H532V0Z"/>
<path transform="translate(912.850 498.000) scale(0.01500 -0.01500)" d="M104 0 28 710H133L192 86H180L254 630H346L420 86H408L467 710H572L496 0H359L288 520H312L241 0Z"/>
<path transform="translate(964.450 498.000) scale(0.01500 -0.01500)" d="M232 238V370H368V238Z"/>
<path transform="translate(1016.050 498.000) scale(0.01500 -0.01500)" d="M86 0V710H306Q380 710 435.5 683.0Q491 656 521.5 606.5Q552 557 552 489Q552 421 521.5 371.5Q491 322 435.5 295.5Q380 269 306 269H191V0ZM191 368H295Q371 368 407.0 399.0Q443 430 443 489Q443 549 407.0 580.0Q371 611 295 611H191Z"/>
<path transform="translate(1028.950 498.000) scale(0.01500 -0.01500)" d="M300 -16Q186 -16 122.0 54.0Q58 124 58 247V710H163V243Q163 165 198.0 123.5Q233 82 300 82Q367 82 402.0 123.5Q437 165 437 243V710H542V247Q542 124 478.0 54.0Q414 -16 300 -16Z"/>
<path transform="translate(1041.850 498.000) scale(0.01500 -0.01500)" d="M83 0V710H289Q406 710 467.0 659.0Q528 608 528 517Q528 473 508.0 438.5Q488 404 449.5 383.5Q411 363 358 362V368Q423 368 467.5 346.5Q512 325 535.0 286.5Q558 248 558 197Q558 103 493.5 51.5Q429 0 313 0ZM188 98H314Q383 98 416.0 125.5Q449 153 449 202Q449 254 414.5 283.0Q380 312 314 312H188ZM188 409H291Q357 409 388.0 435.5Q419 462 419 510Q419 559 388.0 585.5Q357 612 291 612H188Z"/>
<path transform="translate(1054.750 498.000) scale(0.01500 -0.01500)" d="M98 0V710H203V40L139 99H542V0Z"/>
<path transform="translate(1067.650 498.000) scale(0.01500 -0.01500)" d="M78 0V99H248V611H78V710H522V611H352V99H522V0Z"/>
<path transform="translate(1080.550 498.000) scale(0.01500 -0.01500)" d="M309 -16Q232 -16 174.5 15.0Q117 46 83.0 101.5Q49 157 43 231L151 238Q158 187 179.0 152.0Q200 117 234.0 99.5Q268 82 313 82Q357 82 387.0 93.5Q417 105 433.0 127.0Q449 149 449 180Q449 212 434.0 236.0Q419 260 380.0 280.0Q341 300 266 321Q193 341 147.0 366.0Q101 391 80.0 428.0Q59 465 59 520Q59 581 87.5 627.5Q116 674 169.5 700.0Q223 726 298 726Q372 726 424.5 697.0Q477 668 507.5 616.5Q538 565 545 496L437 490Q432 531 414.5 562.0Q397 593 367.0 610.5Q337 628 295 628Q236 628 201.5 599.5Q167 571 167 525Q167 494 181.0 474.0Q195 454 230.0 438.0Q265 422 328 405Q413 382 463.0 352.0Q513 322 535.0 280.0Q557 238 557 180Q557 122 526.0 77.5Q495 33 439.5 8.5Q384 -16 309 -16Z"/>
<path transform="translate(1093.450 498.000) scale(0.01500 -0.01500)" d="M56 0V710H161V368L114 406H486L439 368V710H544V0H439V346L486 308H114L161 346V0Z"/></g>
<g fill="#a3a3a3"><path transform="translate(326.830 534.000) scale(0.01300 -0.01300)" d="M88 0V710H524V611H193V404H512V308H193V99H532V0Z"/>
<path transform="translate(336.970 534.000) scale(0.01300 -0.01300)" d="M68 0V710H196L429 149V710H532V0H404L171 561V0Z"/>
<path transform="translate(357.250 534.000) scale(0.01300 -0.01300)" d="M101 -110 403 750H499L197 -110Z"/>
<path transform="translate(377.530 534.000) scale(0.01300 -0.01300)" d="M48 0V100L424 611H66V710H544V610L169 99H552V0Z"/>
<path transform="translate(387.670 534.000) scale(0.01300 -0.01300)" d="M56 0V710H161V368L114 406H486L439 368V710H544V0H439V346L486 308H114L161 346V0Z"/>
<path transform="translate(428.230 534.000) scale(0.01300 -0.01300)" d="M232 238V370H368V238Z"/>
<path transform="translate(468.790 534.000) scale(0.01300 -0.01300)" d="M303 -16Q217 -16 157.5 29.0Q98 74 67.0 157.0Q36 240 36 354Q36 469 67.0 552.0Q98 635 157.5 680.5Q217 726 303 726Q400 726 466.5 662.0Q533 598 554 483L444 477Q429 551 391.5 589.5Q354 628 303 628Q251 628 216.0 596.0Q181 564 163.0 503.0Q145 442 145 354Q145 267 163.0 206.5Q181 146 216.0 114.0Q251 82 303 82Q358 82 397.0 124.0Q436 166 449 247L558 242Q540 120 473.0 52.0Q406 -16 303 -16Z"/>
<path transform="translate(478.930 534.000) scale(0.01300 -0.01300)" d="M303 -16Q217 -16 157.5 29.0Q98 74 67.0 157.0Q36 240 36 354Q36 469 67.0 552.0Q98 635 157.5 680.5Q217 726 303 726Q400 726 466.5 662.0Q533 598 554 483L444 477Q429 551 391.5 589.5Q354 628 303 628Q251 628 216.0 596.0Q181 564 163.0 503.0Q145 442 145 354Q145 267 163.0 206.5Q181 146 216.0 114.0Q251 82 303 82Q358 82 397.0 124.0Q436 166 449 247L558 242Q540 120 473.0 52.0Q406 -16 303 -16Z"/>
<path transform="translate(489.070 534.000) scale(0.01300 -0.01300)" d="M124 106 396 609 476 604 204 101ZM300 -16Q222 -16 165.0 29.0Q108 74 78.0 157.0Q48 240 48 354Q48 469 78.0 552.0Q108 635 165.0 680.5Q222 726 300 726Q379 726 435.5 680.5Q492 635 522.0 552.0Q552 469 552 354Q552 240 522.0 157.0Q492 74 435.5 29.0Q379 -16 300 -16ZM300 82Q345 82 376.5 114.5Q408 147 425.5 208.0Q443 269 443 354Q443 441 425.5 502.0Q408 563 376.5 595.5Q345 628 300 628Q256 628 224.0 595.5Q192 563 174.5 502.0Q157 441 157 354Q157 269 174.5 208.0Q192 147 224.0 114.5Q256 82 300 82Z"/>
<path transform="translate(529.630 534.000) scale(0.01300 -0.01300)" d="M232 238V370H368V238Z"/>
<path transform="translate(570.190 534.000) scale(0.01300 -0.01300)" d="M309 -16Q232 -16 174.5 15.0Q117 46 83.0 101.5Q49 157 43 231L151 238Q158 187 179.0 152.0Q200 117 234.0 99.5Q268 82 313 82Q357 82 387.0 93.5Q417 105 433.0 127.0Q449 149 449 180Q449 212 434.0 236.0Q419 260 380.0 280.0Q341 300 266 321Q193 341 147.0 366.0Q101 391 80.0 428.0Q59 465 59 520Q59 581 87.5 627.5Q116 674 169.5 700.0Q223 726 298 726Q372 726 424.5 697.0Q477 668 507.5 616.5Q538 565 545 496L437 490Q432 531 414.5 562.0Q397 593 367.0 610.5Q337 628 295 628Q236 628 201.5 599.5Q167 571 167 525Q167 494 181.0 474.0Q195 454 230.0 438.0Q265 422 328 405Q413 382 463.0 352.0Q513 322 535.0 280.0Q557 238 557 180Q557 122 526.0 77.5Q495 33 439.5 8.5Q384 -16 309 -16Z"/>
<path transform="translate(580.330 534.000) scale(0.01300 -0.01300)" d="M248 0V611H40V710H560V611H352V0Z"/>
<path transform="translate(590.470 534.000) scale(0.01300 -0.01300)" d="M24 0 232 710H368L576 0H467L300 601L133 0ZM140 185 172 282H428L460 185Z"/>
<path transform="translate(600.610 534.000) scale(0.01300 -0.01300)" d="M248 0V611H40V710H560V611H352V0Z"/>
<path transform="translate(610.750 534.000) scale(0.01300 -0.01300)" d="M78 0V99H248V611H78V710H522V611H352V99H522V0Z"/>
<path transform="translate(620.890 534.000) scale(0.01300 -0.01300)" d="M303 -16Q217 -16 157.5 29.0Q98 74 67.0 157.0Q36 240 36 354Q36 469 67.0 552.0Q98 635 157.5 680.5Q217 726 303 726Q400 726 466.5 662.0Q533 598 554 483L444 477Q429 551 391.5 589.5Q354 628 303 628Q251 628 216.0 596.0Q181 564 163.0 503.0Q145 442 145 354Q145 267 163.0 206.5Q181 146 216.0 114.0Q251 82 303 82Q358 82 397.0 124.0Q436 166 449 247L558 242Q540 120 473.0 52.0Q406 -16 303 -16Z"/>
<path transform="translate(641.170 534.000) scale(0.01300 -0.01300)" d="M86 0V710H306Q380 710 435.5 683.0Q491 656 521.5 606.5Q552 557 552 489Q552 421 521.5 371.5Q491 322 435.5 295.5Q380 269 306 269H191V0ZM191 368H295Q371 368 407.0 399.0Q443 430 443 489Q443 549 407.0 580.0Q371 611 295 611H191Z"/>
<path transform="translate(651.310 534.000) scale(0.01300 -0.01300)" d="M67 0V710H288Q401 710 465.5 653.0Q530 596 530 498Q530 447 507.5 408.0Q485 369 448.5 347.0Q412 325 371 322L367 334Q441 331 477.5 300.5Q514 270 520 202L538 0H433L417 182Q414 217 402.0 238.0Q390 259 365.0 268.0Q340 277 296 277H172V0ZM172 375H286Q352 375 387.0 406.0Q422 437 422 493Q422 550 387.0 580.5Q352 611 286 611H172Z"/>
<path transform="translate(661.450 534.000) scale(0.01300 -0.01300)" d="M88 0V710H524V611H193V404H512V308H193V99H532V0Z"/>
<path transform="translate(671.590 534.000) scale(0.01300 -0.01300)" d="M138 245V338H462V245Z"/>
<path transform="translate(681.730 534.000) scale(0.01300 -0.01300)" d="M309 -16Q232 -16 174.5 15.0Q117 46 83.0 101.5Q49 157 43 231L151 238Q158 187 179.0 152.0Q200 117 234.0 99.5Q268 82 313 82Q357 82 387.0 93.5Q417 105 433.0 127.0Q449 149 449 180Q449 212 434.0 236.0Q419 260 380.0 280.0Q341 300 266 321Q193 341 147.0 366.0Q101 391 80.0 428.0Q59 465 59 520Q59 581 87.5 627.5Q116 674 169.5 700.0Q223 726 298 726Q372 726 424.5 697.0Q477 668 507.5 616.5Q538 565 545 496L437 490Q432 531 414.5 562.0Q397 593 367.0 610.5Q337 628 295 628Q236 628 201.5 599.5Q167 571 167 525Q167 494 181.0 474.0Q195 454 230.0 438.0Q265 422 328 405Q413 382 463.0 352.0Q513 322 535.0 280.0Q557 238 557 180Q557 122 526.0 77.5Q495 33 439.5 8.5Q384 -16 309 -16Z"/>
<path transform="translate(691.870 534.000) scale(0.01300 -0.01300)" d="M303 -16Q217 -16 157.5 29.0Q98 74 67.0 157.0Q36 240 36 354Q36 469 67.0 552.0Q98 635 157.5 680.5Q217 726 303 726Q400 726 466.5 662.0Q533 598 554 483L444 477Q429 551 391.5 589.5Q354 628 303 628Q251 628 216.0 596.0Q181 564 163.0 503.0Q145 442 145 354Q145 267 163.0 206.5Q181 146 216.0 114.0Q251 82 303 82Q358 82 397.0 124.0Q436 166 449 247L558 242Q540 120 473.0 52.0Q406 -16 303 -16Z"/>
<path transform="translate(702.010 534.000) scale(0.01300 -0.01300)" d="M67 0V710H288Q401 710 465.5 653.0Q530 596 530 498Q530 447 507.5 408.0Q485 369 448.5 347.0Q412 325 371 322L367 334Q441 331 477.5 300.5Q514 270 520 202L538 0H433L417 182Q414 217 402.0 238.0Q390 259 365.0 268.0Q340 277 296 277H172V0ZM172 375H286Q352 375 387.0 406.0Q422 437 422 493Q422 550 387.0 580.5Q352 611 286 611H172Z"/>
<path transform="translate(712.150 534.000) scale(0.01300 -0.01300)" d="M88 0V710H524V611H193V404H512V308H193V99H532V0Z"/>
<path transform="translate(722.290 534.000) scale(0.01300 -0.01300)" d="M88 0V710H524V611H193V404H512V308H193V99H532V0Z"/>
<path transform="translate(732.430 534.000) scale(0.01300 -0.01300)" d="M68 0V710H196L429 149V710H532V0H404L171 561V0Z"/>
<path transform="translate(772.990 534.000) scale(0.01300 -0.01300)" d="M232 238V370H368V238Z"/>
<path transform="translate(813.550 534.000) scale(0.01300 -0.01300)" d="M300 -16Q215 -16 156.5 27.0Q98 70 67.0 153.0Q36 236 36 354Q36 474 67.0 557.0Q98 640 156.5 683.0Q215 726 300 726Q385 726 444.0 683.0Q503 640 533.5 557.0Q564 474 564 354Q564 236 533.5 153.0Q503 70 444.0 27.0Q385 -16 300 -16ZM300 82Q350 82 384.5 112.0Q419 142 437.0 203.0Q455 264 455 354Q455 444 437.0 505.5Q419 567 384.5 597.5Q350 628 300 628Q250 628 215.5 597.5Q181 567 163.0 505.5Q145 444 145 354Q145 264 163.0 203.0Q181 142 215.5 112.0Q250 82 300 82Z"/>
<path transform="translate(823.690 534.000) scale(0.01300 -0.01300)" d="M86 0V710H306Q380 710 435.5 683.0Q491 656 521.5 606.5Q552 557 552 489Q552 421 521.5 371.5Q491 322 435.5 295.5Q380 269 306 269H191V0ZM191 368H295Q371 368 407.0 399.0Q443 430 443 489Q443 549 407.0 580.0Q371 611 295 611H191Z"/>
<path transform="translate(833.830 534.000) scale(0.01300 -0.01300)" d="M88 0V710H524V611H193V404H512V308H193V99H532V0Z"/>
<path transform="translate(843.970 534.000) scale(0.01300 -0.01300)" d="M68 0V710H196L429 149V710H532V0H404L171 561V0Z"/>
<path transform="translate(864.250 534.000) scale(0.01300 -0.01300)" d="M98 0V710H542V613H143L203 670V344L143 395H524V299H143L203 350V0Z"/>
<path transform="translate(874.390 534.000) scale(0.01300 -0.01300)" d="M67 0V710H288Q401 710 465.5 653.0Q530 596 530 498Q530 447 507.5 408.0Q485 369 448.5 347.0Q412 325 371 322L367 334Q441 331 477.5 300.5Q514 270 520 202L538 0H433L417 182Q414 217 402.0 238.0Q390 259 365.0 268.0Q340 277 296 277H172V0ZM172 375H286Q352 375 387.0 406.0Q422 437 422 493Q422 550 387.0 580.5Q352 611 286 611H172Z"/>
<path transform="translate(884.530 534.000) scale(0.01300 -0.01300)" d="M24 0 232 710H368L576 0H467L300 601L133 0ZM140 185 172 282H428L460 185Z"/>
<path transform="translate(894.670 534.000) scale(0.01300 -0.01300)" d="M260 86 138 594 149 595V0H48V710H188L320 171H280L412 710H552V0H451V595L462 594L340 86Z"/>
<path transform="translate(904.810 534.000) scale(0.01300 -0.01300)" d="M88 0V710H524V611H193V404H512V308H193V99H532V0Z"/>
<path transform="translate(914.950 534.000) scale(0.01300 -0.01300)" d="M104 0 28 710H133L192 86H180L254 630H346L420 86H408L467 710H572L496 0H359L288 520H312L241 0Z"/>
<path transform="translate(925.090 534.000) scale(0.01300 -0.01300)" d="M300 -16Q215 -16 156.5 27.0Q98 70 67.0 153.0Q36 236 36 354Q36 474 67.0 557.0Q98 640 156.5 683.0Q215 726 300 726Q385 726 444.0 683.0Q503 640 533.5 557.0Q564 474 564 354Q564 236 533.5 153.0Q503 70 444.0 27.0Q385 -16 300 -16ZM300 82Q350 82 384.5 112.0Q419 142 437.0 203.0Q455 264 455 354Q455 444 437.0 505.5Q419 567 384.5 597.5Q350 628 300 628Q250 628 215.5 597.5Q181 567 163.0 505.5Q145 444 145 354Q145 264 163.0 203.0Q181 142 215.5 112.0Q250 82 300 82Z"/>
<path transform="translate(935.230 534.000) scale(0.01300 -0.01300)" d="M67 0V710H288Q401 710 465.5 653.0Q530 596 530 498Q530 447 507.5 408.0Q485 369 448.5 347.0Q412 325 371 322L367 334Q441 331 477.5 300.5Q514 270 520 202L538 0H433L417 182Q414 217 402.0 238.0Q390 259 365.0 268.0Q340 277 296 277H172V0ZM172 375H286Q352 375 387.0 406.0Q422 437 422 493Q422 550 387.0 580.5Q352 611 286 611H172Z"/>
<path transform="translate(945.370 534.000) scale(0.01300 -0.01300)" d="M151 214V363L427 710H554ZM56 0V710H161V0ZM439 0 213 350 285 422 562 0Z"/></g>
</svg>